#N canvas 827 239 557 571 12;
#N canvas 0 50 450 250 (subpatch) 0;
#X text 0 0 plugdatainfo <?xml version="1.0" encoding="UTF-8"?> <plugdatainfo/>;
#X coords 0 1 100 -1 15 15 1 0 0;
#X restore 0 0 graph;
#X obj 134 56 inlet;
#X obj 134 396 outlet;
#X obj 282 88 loadbang;
#X obj 282 120 f \$1;
#X obj 311 162 > 0;
#X obj 282 187 spigot;
#X obj 282 220 * -1;
#X obj 134 303 dbtorms;
#X obj 134 275 +;
#X obj 134 350 spigot;
#X obj 215 303 > -15;
#X obj 282 303 == -15;
#X msg 282 350 0, f 5;
#X msg 134 248 100 \$1, f 8;
#X obj 282 248 t f f;
#X obj 134 88 t f f f b;
#X connect 1 0 16 0;
#X connect 3 0 4 0;
#X connect 4 0 5 0;
#X connect 4 0 6 0;
#X connect 5 0 6 1;
#X connect 6 0 7 0;
#X connect 7 0 15 0;
#X connect 8 0 10 0;
#X connect 9 0 8 0;
#X connect 10 0 2 0;
#X connect 11 0 10 1;
#X connect 12 0 13 0;
#X connect 13 0 2 0;
#X connect 14 0 9 0;
#X connect 15 0 11 1;
#X connect 15 1 12 1;
#X connect 16 0 14 0;
#X connect 16 1 11 0;
#X connect 16 2 12 0;
#X connect 16 3 4 0;
