#N canvas 827 239 557 571 12;
#N canvas 0 50 450 250 (subpatch) 0;
#X text 0 0 plugdatainfo <?xml version="1.0" encoding="UTF-8"?> <plugdatainfo/>
;
#X coords 0 1 100 -1 1 1 1;
#X restore 0 0 graph;
#X obj 170 88 inlet;
#X obj 134 379 outlet;
#X obj 282 88 loadbang;
#X obj 282 120 f \$1;
#X obj 311 162 > 0;
#X obj 282 187 spigot;
#X obj 282 220 * -1;
#X obj 134 286 dbtorms;
#X msg 134 181 100, f 6;
#X obj 134 258 +;
#X obj 134 333 spigot;
#X obj 215 286 > -15;
#X obj 289 286 == -15;
#X msg 289 333 0, f 5;
#X obj 170 120 t b f b;
#X connect 1 0 15 0;
#X connect 3 0 4 0;
#X connect 4 0 5 0;
#X connect 4 0 6 0;
#X connect 5 0 6 1;
#X connect 6 0 7 0;
#X connect 7 0 12 1;
#X connect 7 0 13 1;
#X connect 8 0 11 0;
#X connect 9 0 10 0;
#X connect 10 0 8 0;
#X connect 11 0 2 0;
#X connect 12 0 11 1;
#X connect 13 0 14 0;
#X connect 14 0 2 0;
#X connect 15 0 9 0;
#X connect 15 1 10 1;
#X connect 15 1 12 0;
#X connect 15 1 13 0;
#X connect 15 2 4 0;
