#N canvas 827 239 527 327 12;
#X obj 44 50 inlet~;
#X obj 781 50 inlet~;
#X obj 40 1069 outlet~;
#X obj 780 1069 outlet~;
#X obj 1292 45 inlet;
#X obj 40 959 *~;
#X obj 242 384 *~;
#X obj 174 155 r \$0-time;
#X obj 353 283 r \$0-feedback;
#X obj 1292 155 hv.dispatch \$0 mix 0.5;
#X obj 1292 89 hv.dispatch \$0 cross 0.2;
#X obj 1292 133 hv.dispatch \$0 time 500;
#X obj 780 961 *~;
#X obj 996 375 *~;
#X obj 40 1027 +~;
#X obj 780 1029 +~;
#X obj 598 745 clip 0 1;
#X msg 211 907 \$1 100;
#X obj 211 927 line~;
#X obj 598 725 r \$0-mix;
#X obj 174 970 *~;
#N canvas 0 22 250 374 mix 1;
#X obj 50 80 * 2;
#X obj 50 110 - 1;
#X obj 50 140 t f f;
#X obj 101 200 + 1;
#X msg 50 170 1 \$1;
#X obj 50 200 -;
#X obj 101 230 * 0.5;
#X obj 50 230 * 0.5;
#X obj 101 260 sqrt;
#X obj 50 260 sqrt;
#X obj 50 290 outlet;
#X obj 101 290 outlet;
#X obj 50 50 inlet;
#X connect 0 0 1 0 empty;
#X connect 1 0 2 0 empty;
#X connect 2 0 4 0 empty;
#X connect 2 1 3 0 empty;
#X connect 3 0 6 0 empty;
#X connect 4 0 5 0 empty;
#X connect 5 0 7 0 empty;
#X connect 6 0 8 0 empty;
#X connect 7 0 9 0 empty;
#X connect 8 0 11 0 empty;
#X connect 9 0 10 0 empty;
#X connect 12 0 0 0 empty;
#X restore 598 765 pd mix;
#X msg 71 887 \$1 100;
#X obj 71 907 line~;
#X msg 818 894 \$1 100;
#X obj 818 914 line~;
#X msg 947 912 \$1 100;
#X obj 947 932 line~;
#X obj 908 970 *~;
#X obj 588 259 clip 0 1;
#X obj 588 239 r \$0-cross;
#N canvas 0 22 250 374 cross 1;
#X obj 50 80 * 2;
#X obj 50 110 - 1;
#X obj 50 140 t f f;
#X obj 101 200 + 1;
#X msg 50 170 1 \$1;
#X obj 50 200 -;
#X obj 50 290 outlet;
#X obj 101 290 outlet;
#X obj 50 50 inlet;
#X obj 50 230 * 0.5;
#X obj 101 230 * 0.5;
#X connect 0 0 1 0 empty;
#X connect 1 0 2 0 empty;
#X connect 2 0 4 0 empty;
#X connect 2 1 3 0 empty;
#X connect 3 0 10 0 empty;
#X connect 4 0 5 0 empty;
#X connect 5 0 9 0 empty;
#X connect 8 0 0 0 empty;
#X connect 9 0 6 0 empty;
#X connect 10 0 7 0 empty;
#X restore 588 279 pd cross;
#X obj 242 573 *~;
#X obj 242 612 +~;
#X msg 423 501 \$1 100;
#X obj 423 521 line~;
#X obj 413 567 *~;
#X msg 273 501 \$1 100;
#X obj 273 521 line~;
#X obj 996 553 *~;
#X obj 996 612 +~;
#X msg 1167 501 \$1 100;
#X obj 1167 521 line~;
#X obj 1156 563 *~;
#X msg 1027 481 \$1 100;
#X obj 1027 501 line~;
#X obj 1292 111 hv.dispatch \$0 feedback 0.25;
#X obj 87 111 delwrite~ \$0-delayL 5000;
#X obj 242 723 s~ \$0-feedbackL;
#X obj 124 50 r~ \$0-feedbackL;
#X obj 886 50 r~ \$0-feedbackR;
#X obj 818 97 delwrite~ \$0-delayR 5000;
#X obj 996 725 s~ \$0-feedbackR;
#X obj 242 282 lop~ 8000;
#X obj 242 311 lop~ 8000;
#X obj 242 340 hip~ 300;
#X obj 174 239 delread4~ \$0-delayL 0;
#X obj 909 215 delread4~ \$0-delayR 0;
#X msg 174 182 \$1 100;
#X obj 174 210 line~;
#X obj 909 131 r \$0-time;
#X msg 909 158 \$1 100;
#X obj 909 186 line~;
#X obj 996 269 lop~ 8000;
#X obj 996 298 lop~ 8000;
#X obj 996 327 hip~ 300;
#X obj 175 650 clip~ -1 1;
#X obj 909 650 clip~ -1 1;
#X msg 353 313 \$1 100;
#X obj 353 340 line~;
#X obj 1126 269 r \$0-feedback;
#X msg 1126 299 \$1 100;
#X obj 1126 326 line~;
#X connect 0 0 5 0 empty;
#X connect 0 0 47 0 empty;
#X connect 1 0 12 0 empty;
#X connect 1 0 51 0 empty;
#X connect 4 0 10 0 empty;
#X connect 5 0 14 0 empty;
#X connect 6 0 32 0 empty;
#X connect 6 0 43 0 empty;
#X connect 7 0 58 0 empty;
#X connect 8 0 68 0 empty;
#X connect 10 0 46 0 empty;
#X connect 11 0 9 0 empty;
#X connect 12 0 15 0 empty;
#X connect 13 0 39 0 empty;
#X connect 13 0 36 0 empty;
#X connect 14 0 2 0 empty;
#X connect 15 0 3 0 empty;
#X connect 16 0 21 0 empty;
#X connect 17 0 18 0 empty;
#X connect 18 0 20 1 empty;
#X connect 19 0 16 0 empty;
#X connect 20 0 14 1 empty;
#X connect 21 0 22 0 empty;
#X connect 21 0 24 0 empty;
#X connect 21 1 17 0 empty;
#X connect 21 1 26 0 empty;
#X connect 22 0 23 0 empty;
#X connect 23 0 5 1 empty;
#X connect 24 0 25 0 empty;
#X connect 25 0 12 1 empty;
#X connect 26 0 27 0 empty;
#X connect 27 0 28 1 empty;
#X connect 28 0 15 1 empty;
#X connect 29 0 31 0 empty;
#X connect 30 0 29 0 empty;
#X connect 31 0 37 0 empty;
#X connect 31 0 44 0 empty;
#X connect 31 1 41 0 empty;
#X connect 31 1 34 0 empty;
#X connect 32 0 33 0 empty;
#X connect 33 0 48 0 empty;
#X connect 34 0 35 0 empty;
#X connect 35 0 36 1 empty;
#X connect 36 0 33 1 empty;
#X connect 37 0 38 0 empty;
#X connect 38 0 32 1 empty;
#X connect 39 0 40 0 empty;
#X connect 40 0 52 0 empty;
#X connect 41 0 42 0 empty;
#X connect 42 0 43 1 empty;
#X connect 43 0 40 1 empty;
#X connect 44 0 45 0 empty;
#X connect 45 0 39 1 empty;
#X connect 46 0 11 0 empty;
#X connect 49 0 47 0 empty;
#X connect 50 0 51 0 empty;
#X connect 53 0 54 0 empty;
#X connect 54 0 55 0 empty;
#X connect 55 0 6 0 empty;
#X connect 56 0 53 0 empty;
#X connect 56 0 66 0 empty;
#X connect 57 0 63 0 empty;
#X connect 57 0 67 0 empty;
#X connect 58 0 59 0 empty;
#X connect 59 0 56 0 empty;
#X connect 60 0 61 0 empty;
#X connect 61 0 62 0 empty;
#X connect 62 0 57 0 empty;
#X connect 63 0 64 0 empty;
#X connect 64 0 65 0 empty;
#X connect 65 0 13 0 empty;
#X connect 66 0 20 0 empty;
#X connect 67 0 28 0 empty;
#X connect 68 0 69 0 empty;
#X connect 69 0 6 1 empty;
#X connect 70 0 71 0 empty;
#X connect 71 0 72 0 empty;
#X connect 72 0 13 1 empty;
