#N canvas 827 239 527 327 12;
#X obj 44 50 inlet~;
#X obj 781 50 inlet~;
#X obj 40 1069 outlet~;
#X obj 780 1069 outlet~;
#X obj 1292 45 inlet;
#X obj 40 959 *~;
#X obj 242 384 *~;
#X obj 174 260 r \$0-time;
#X obj 313 310 r \$0-feedback;
#X obj 1292 155 hv.dispatch \$0 mix 0.5;
#X obj 1292 89 hv.dispatch \$0 cross 0.2;
#X obj 1292 133 hv.dispatch \$0 time 500;
#X obj 780 961 *~;
#X obj 996 375 *~;
#X obj 909 260 r \$0-time;
#X obj 1067 301 r \$0-feedback;
#X obj 40 1027 +~;
#X obj 780 1029 +~;
#X obj 598 745 clip 0 1;
#X msg 211 907 \$1 100;
#X obj 211 927 line~;
#X obj 598 725 r \$0-mix;
#X obj 174 970 *~;
#N canvas 0 22 250 374 mix 1;
#X obj 50 80 * 2;
#X obj 50 110 - 1;
#X obj 50 140 t f f;
#X obj 101 200 + 1;
#X msg 50 170 1 \$1;
#X obj 50 200 -;
#X obj 101 230 * 0.5;
#X obj 50 230 * 0.5;
#X obj 101 260 sqrt;
#X obj 50 260 sqrt;
#X obj 50 290 outlet;
#X obj 101 290 outlet;
#X obj 50 50 inlet;
#X connect 0 0 1 0 empty;
#X connect 1 0 2 0 empty;
#X connect 2 0 4 0 empty;
#X connect 2 1 3 0 empty;
#X connect 3 0 6 0 empty;
#X connect 4 0 5 0 empty;
#X connect 5 0 7 0 empty;
#X connect 6 0 8 0 empty;
#X connect 7 0 9 0 empty;
#X connect 8 0 11 0 empty;
#X connect 9 0 10 0 empty;
#X connect 12 0 0 0 empty;
#X restore 598 765 pd mix;
#X msg 71 887 \$1 100;
#X obj 71 907 line~;
#X msg 818 894 \$1 100;
#X obj 818 914 line~;
#X msg 947 912 \$1 100;
#X obj 947 932 line~;
#X obj 908 970 *~;
#X obj 588 259 clip 0 1;
#X obj 588 239 r \$0-cross;
#N canvas 0 22 250 374 cross 1;
#X obj 50 80 * 2;
#X obj 50 110 - 1;
#X obj 50 140 t f f;
#X obj 101 200 + 1;
#X msg 50 170 1 \$1;
#X obj 50 200 -;
#X obj 50 290 outlet;
#X obj 101 290 outlet;
#X obj 50 50 inlet;
#X obj 50 230 * 0.5;
#X obj 101 230 * 0.5;
#X connect 0 0 1 0 empty;
#X connect 1 0 2 0 empty;
#X connect 2 0 4 0 empty;
#X connect 2 1 3 0 empty;
#X connect 3 0 10 0 empty;
#X connect 4 0 5 0 empty;
#X connect 5 0 9 0 empty;
#X connect 8 0 0 0 empty;
#X connect 9 0 6 0 empty;
#X connect 10 0 7 0 empty;
#X restore 588 279 pd cross;
#X obj 242 573 *~;
#X obj 242 612 +~;
#X msg 413 521 \$1 100;
#X obj 413 541 line~;
#X obj 413 567 *~;
#X msg 273 501 \$1 100;
#X obj 273 521 line~;
#X obj 996 553 *~;
#X obj 996 612 +~;
#X msg 1167 501 \$1 100;
#X obj 1167 521 line~;
#X obj 1156 563 *~;
#X msg 1027 481 \$1 100;
#X obj 1027 501 line~;
#X obj 71 146 hip~ 600;
#X obj 818 146 hip~ 600;
#X obj 242 685 lop~ 4000;
#X obj 996 687 lop~ 4000;
#X obj 174 779 clip~ -1 1;
#X obj 909 779 clip~ -1 1;
#N canvas 0 50 450 300 limit 1;
#X obj 138 144 env~;
#X obj 138 166 dbtorms;
#X msg 139 220 1 \$1;
#X obj 101 99 inlet~;
#X obj 101 399 outlet~;
#X obj 101 346 *~;
#X obj 139 303 lop~ 20;
#X obj 139 249 -;
#X connect 0 0 1 0 empty;
#X connect 1 0 2 0 empty;
#X connect 2 0 7 0 empty;
#X connect 3 0 0 0 empty;
#X connect 3 0 5 0 empty;
#X connect 5 0 4 0 empty;
#X connect 6 0 5 1 empty;
#X connect 7 0 6 0 empty;
#X restore 242 645 pd limit;
#N canvas 0 50 450 300 limit 1;
#X obj 136 144 env~;
#X obj 136 166 dbtorms;
#X msg 137 220 1 \$1;
#X obj 99 99 inlet~;
#X obj 99 399 outlet~;
#X obj 99 346 *~;
#X obj 137 303 lop~ 20;
#X obj 137 249 -;
#X connect 0 0 1 0 empty;
#X connect 1 0 2 0 empty;
#X connect 2 0 7 0 empty;
#X connect 3 0 0 0 empty;
#X connect 3 0 5 0 empty;
#X connect 5 0 4 0 empty;
#X connect 6 0 5 1 empty;
#X connect 7 0 6 0 empty;
#X restore 996 645 pd limit;
#X obj 1292 111 hv.dispatch \$0 feedback 0.25;
#X obj 71 185 delwrite~ \$0-delayL 5000;
#X obj 174 290 delread~ \$0-delayL 0;
#X obj 242 723 s~ \$0-feedbackL;
#X obj 103 95 r~ \$0-feedbackL;
#X obj 862 95 r~ \$0-feedbackR;
#X obj 818 185 delwrite~ \$0-delayR 5000;
#X obj 909 290 delread~ \$0-delayR 0;
#X obj 996 725 s~ \$0-feedbackR;
#X connect 0 0 5 0 empty;
#X connect 0 0 48 0 empty;
#X connect 1 0 12 0 empty;
#X connect 1 0 49 0 empty;
#X connect 4 0 10 0 empty;
#X connect 5 0 16 0 empty;
#X connect 6 0 34 0 empty;
#X connect 6 0 45 0 empty;
#X connect 7 0 58 0 empty;
#X connect 8 0 6 1 empty;
#X connect 10 0 56 0 empty;
#X connect 11 0 9 0 empty;
#X connect 12 0 17 0 empty;
#X connect 13 0 41 0 empty;
#X connect 13 0 38 0 empty;
#X connect 14 0 63 0 empty;
#X connect 15 0 13 1 empty;
#X connect 16 0 2 0 empty;
#X connect 17 0 3 0 empty;
#X connect 18 0 23 0 empty;
#X connect 19 0 20 0 empty;
#X connect 20 0 22 1 empty;
#X connect 21 0 18 0 empty;
#X connect 22 0 16 1 empty;
#X connect 23 0 24 0 empty;
#X connect 23 0 26 0 empty;
#X connect 23 1 19 0 empty;
#X connect 23 1 28 0 empty;
#X connect 24 0 25 0 empty;
#X connect 25 0 5 1 empty;
#X connect 26 0 27 0 empty;
#X connect 27 0 12 1 empty;
#X connect 28 0 29 0 empty;
#X connect 29 0 30 1 empty;
#X connect 30 0 17 1 empty;
#X connect 31 0 33 0 empty;
#X connect 32 0 31 0 empty;
#X connect 33 0 39 0 empty;
#X connect 33 0 46 0 empty;
#X connect 33 1 43 0 empty;
#X connect 33 1 36 0 empty;
#X connect 34 0 35 0 empty;
#X connect 35 0 54 0 empty;
#X connect 36 0 37 0 empty;
#X connect 37 0 38 1 empty;
#X connect 38 0 35 1 empty;
#X connect 39 0 40 0 empty;
#X connect 40 0 34 1 empty;
#X connect 41 0 42 0 empty;
#X connect 42 0 55 0 empty;
#X connect 43 0 44 0 empty;
#X connect 44 0 45 1 empty;
#X connect 45 0 42 1 empty;
#X connect 46 0 47 0 empty;
#X connect 47 0 41 1 empty;
#X connect 48 0 57 0 empty;
#X connect 49 0 62 0 empty;
#X connect 50 0 59 0 empty;
#X connect 51 0 64 0 empty;
#X connect 52 0 22 0 empty;
#X connect 53 0 30 0 empty;
#X connect 54 0 50 0 empty;
#X connect 55 0 51 0 empty;
#X connect 56 0 11 0 empty;
#X connect 58 0 52 0 empty;
#X connect 58 0 6 0 empty;
#X connect 60 0 48 0 empty;
#X connect 61 0 49 0 empty;
#X connect 63 0 53 0 empty;
#X connect 63 0 13 0 empty;
