#N canvas 347 190 1462 597 12;
#N canvas 0 50 450 250 (subpatch) 0;
#X text 0 0 plugdatainfo <?xml version="1.0" encoding="UTF-8"?> <plugdatainfo/>;
#X coords 0 1 100 -1 15 15 1 0 0;
#X restore 0 0 graph;
#X obj 477 17 inlet~;
#X text 878 158 lowpass;
#X text 295 157 highpass;
#X text 497 160 midrange;
#X obj 208 414 *~;
#X obj 477 576 *~;
#X obj 787 414 *~;
#X obj 208 451 outlet~;
#X obj 477 613 outlet~;
#X obj 1168 94 t a;
#X obj 1168 66 inlet;
#X obj 572 138 r \$0-midfreq;
#X obj 667 161 r \$0-midq;
#X obj 240 256 r \$0-highvol;
#X obj 834 251 r \$0-lowvol;
#X obj 787 451 outlet~;
#X obj 516 259 r \$0-midvol;
#X obj 1168 191 hv.dispatch \$0 midfreq 1337;
#X obj 240 288 dbcalc;
#X obj 516 296 dbcalc;
#X obj 834 288 dbcalc;
#X obj 610 388 > 0;
#X obj 584 451 spigot;
#X msg 516 451 0, f 5;
#X obj 516 425 == 0;
#X obj 1168 121 hv.dispatch \$0 highvol 0;
#X obj 1168 157 hv.dispatch \$0 midvol 0;
#X obj 1168 224 hv.dispatch \$0 lowvol 0;
#X obj 584 425 + 0.0313;
#X obj 1168 259 hv.dispatch \$0 midq 0.313;
#X obj 207 189 hv.filter~ highpass 1337 0.3;
#X obj 477 189 hv.filter~ bandpass2 1337 0.313;
#X obj 787 189 hv.filter~ lowpass 1037 0.4;
#X obj 240 359 line~;
#X obj 834 359 line~;
#X obj 516 525 line~;
#X msg 240 325 \$1 20;
#X msg 516 491 \$1 20;
#X msg 834 325 \$1 20;
#X obj 516 325 t f f;
#X connect 1 0 31 0;
#X connect 1 0 32 0;
#X connect 1 0 33 0;
#X connect 5 0 8 0;
#X connect 6 0 9 0;
#X connect 7 0 16 0;
#X connect 10 0 26 0;
#X connect 11 0 10 0;
#X connect 12 0 32 1;
#X connect 13 0 32 2;
#X connect 14 0 19 0;
#X connect 15 0 21 0;
#X connect 17 0 20 0;
#X connect 18 0 28 0;
#X connect 19 0 37 0;
#X connect 20 0 40 0;
#X connect 21 0 39 0;
#X connect 22 0 23 1;
#X connect 23 0 38 0;
#X connect 24 0 38 0;
#X connect 25 0 24 0;
#X connect 26 0 27 0;
#X connect 27 0 18 0;
#X connect 28 0 30 0;
#X connect 29 0 23 0;
#X connect 31 0 5 0;
#X connect 32 0 6 0;
#X connect 33 0 7 0;
#X connect 34 0 5 1;
#X connect 35 0 7 1;
#X connect 36 0 6 1;
#X connect 37 0 34 0;
#X connect 38 0 36 0;
#X connect 39 0 35 0;
#X connect 40 0 29 0;
#X connect 40 1 22 0;
#X connect 40 1 25 0;
