#N canvas 700 244 760 507 12;
#N canvas 0 50 450 250 (subpatch) 0;
#X text 0 0 plugdatainfo <?xml version="1.0" encoding="UTF-8"?> <plugdatainfo/>
;
#X coords 0 1 100 -1 1 1 1;
#X restore 32 25 graph;
#X obj 311 281 log;
#X obj 271 362 exp;
#X obj 271 333 *;
#X obj 311 202 f 5705.6;
#X obj 271 102 inlet;
#X obj 271 429 outlet;
#X text 410 340 q = min * e ^ (x * ln(max / min)), f 35;
#X obj 271 391 *;
#X obj 409 202 f 313.3;
#X obj 311 252 /;
#X obj 271 136 t f b b;
#X connect 1 0 3 1;
#X connect 2 0 8 0;
#X connect 3 0 2 0;
#X connect 4 0 10 0;
#X connect 5 0 11 0;
#X connect 8 0 6 0;
#X connect 9 0 8 1;
#X connect 9 0 10 1;
#X connect 10 0 1 0;
#X connect 11 0 3 0;
#X connect 11 1 4 0;
#X connect 11 2 9 0;
