#N canvas 827 239 527 327 12;
#X obj 50 329 *~;
#X obj 50 447 +~;
#X obj 152 119 clip 0 1;
#X msg 249 184 \$1 100;
#X obj 249 204 line~;
#X obj 120 404 *~;
#N canvas 0 22 250 374 mix 0;
#X obj 50 80 * 2;
#X obj 50 110 - 1;
#X obj 50 140 t f f;
#X obj 101 200 + 1;
#X msg 50 170 1 \$1;
#X obj 50 200 -;
#X obj 101 230 * 0.5;
#X obj 50 230 * 0.5;
#X obj 50 320 outlet;
#X obj 101 320 outlet;
#X obj 50 50 inlet;
#X connect 0 0 1 0;
#X connect 1 0 2 0;
#X connect 2 0 4 0;
#X connect 2 1 3 0;
#X connect 3 0 6 0;
#X connect 4 0 5 0;
#X connect 5 0 7 0;
#X connect 6 0 9 0;
#X connect 7 0 8 0;
#X connect 10 0 0 0;
#X restore 152 139 pd mix;
#X msg 152 184 \$1 100;
#X obj 152 204 line~;
#X obj 230 329 *~;
#X obj 230 447 +~;
#X obj 300 404 *~;
#X obj 50 42 inlet~;
#X obj 120 42 inlet~;
#X obj 229 42 inlet~;
#X obj 300 42 inlet~;
#X obj 485 43 inlet;
#X obj 50 499 outlet~;
#X obj 230 499 outlet~;
#X connect 0 0 1 0;
#X connect 1 0 17 0;
#X connect 2 0 6 0;
#X connect 3 0 4 0;
#X connect 4 0 5 1;
#X connect 4 0 11 1;
#X connect 5 0 1 1;
#X connect 6 0 7 0;
#X connect 6 1 3 0;
#X connect 7 0 8 0;
#X connect 8 0 0 1;
#X connect 8 0 9 1;
#X connect 9 0 10 0;
#X connect 10 0 18 0;
#X connect 11 0 10 1;
#X connect 12 0 0 0;
#X connect 13 0 5 0;
#X connect 14 0 9 0;
#X connect 15 0 11 0;
#X connect 16 0 2 0;
