#N canvas 827 239 527 327 12;
#X obj 179 299 -;
#X obj 179 589 dbtorms~;
#X msg 179 329 100 \$1;
#X obj 179 358 -;
#X obj 179 249 f;
#X obj 129 662 *~;
#X obj 269 379 == 0;
#X obj 269 409 t b f;
#X obj 269 469 spigot;
#X obj 179 469 spigot;
#X obj 204 439 == 1;
#X msg 269 439 100;
#X obj 179 387 min 100;
#X obj 179 129 env~ 512 256;
#X obj 233 169 env~ 512 256;
#X obj 233 199 t b f f;
#X obj 129 69 inlet~;
#X obj 233 69 inlet~;
#X obj 129 703 outlet~;
#X obj 269 344 inlet;
#X obj 179 551 line~;
#X msg 179 515 \$1 10;
#X connect 0 0 2 0;
#X connect 1 0 5 1;
#X connect 2 0 3 0;
#X connect 3 0 12 0;
#X connect 4 0 0 0;
#X connect 5 0 18 0;
#X connect 6 0 7 0;
#X connect 7 0 11 0;
#X connect 7 1 8 1;
#X connect 8 0 21 0;
#X connect 9 0 21 0;
#X connect 10 0 9 1;
#X connect 11 0 8 0;
#X connect 12 0 9 0;
#X connect 13 0 4 0;
#X connect 14 0 15 0;
#X connect 15 0 4 0;
#X connect 15 1 0 1;
#X connect 16 0 5 0;
#X connect 16 0 13 0;
#X connect 17 0 14 0;
#X connect 19 0 6 0;
#X connect 19 0 10 0;
#X connect 20 0 1 0;
#X connect 21 0 20 0;
