#N canvas 0 50 450 300 12;
#X obj 109 49 inlet~;
#X obj 186 49 inlet~;
#X obj 359 49 inlet;
#X obj 116 654 outlet~;
#X obj 225 654 outlet~;
#X obj 225 554 r \$0-mix;
#X obj 36 114 throw~ \$0-CleanL;
#X obj 65 160 throw~ \$0-CleanR;
#X obj 193 299 throw~ \$0-DirtyL;
#X obj 319 299 throw~ \$0-DirtyR;
#X obj 419 114 hv.dispatch \$0 mix 0.5;
#X obj 116 604 linmix;
#X obj 193 258 manglr L;
#X obj 319 258 manglr R;
#X obj 116 404 catch~ \$0-CleanL;
#X obj 143 444 catch~ \$0-DirtyL;
#X obj 170 484 catch~ \$0-CleanR;
#X obj 196 524 catch~ \$0-DirtyR;
#X connect 0 0 6 0;
#X connect 0 0 12 0;
#X connect 1 0 7 0;
#X connect 1 0 13 0;
#X connect 2 0 10 0;
#X connect 2 0 12 1;
#X connect 2 0 13 1;
#X connect 5 0 11 4;
#X connect 11 0 3 0;
#X connect 11 1 4 0;
#X connect 12 0 8 0;
#X connect 13 0 9 0;
#X connect 14 0 11 0;
#X connect 15 0 11 1;
#X connect 16 0 11 2;
#X connect 17 0 11 3;
