#N canvas 827 239 527 327 12;
#X obj 293 174 - 1;
#X obj 293 145 * 2;
#X obj 293 232 abs;
#X obj 293 105 inlet;
#X obj 293 306 outlet;
#X obj 293 203 * 0.313;
#X obj 293 264 + 0.313;
#X connect 0 0 5 0 empty;
#X connect 1 0 0 0 empty;
#X connect 2 0 6 0 empty;
#X connect 3 0 1 0 empty;
#X connect 5 0 2 0 empty;
#X connect 6 0 4 0 empty;
